<svg width="382" height="382" viewBox="0 0 382 382" fill="none" xmlns="http://www.w3.org/2000/svg">
<g clip-path="url(#clip0_626_161)">
<rect x="0.5" y="0.5" width="381" height="381" rx="84.5" fill="url(#paint0_radial_626_161)" stroke="url(#paint1_linear_626_161)"/>
<g filter="url(#filter0_d_626_161)">
<path d="M70.914 115.531L196.613 39.4277L321.884 115.103L323.166 263.462L197.04 340.42L69.6313 263.89L70.914 115.531Z" fill="url(#paint2_radial_626_161)"/>
</g>
<g filter="url(#filter1_d_626_161)">
<path d="M111.531 130.495H281.694M111.531 130.495L196.613 39.4277M111.531 130.495L71.3415 115.531M111.531 130.495L69.6313 263.89M111.531 130.495L196.185 285.267M281.694 130.495L196.613 39.4277M281.694 130.495L321.884 115.103M281.694 130.495L323.166 263.462M281.694 130.495L196.185 285.267M196.613 39.4277L71.3415 115.531M196.613 39.4277L321.884 115.103M71.3415 115.531L69.6313 263.89M321.884 115.103L323.166 263.462M323.166 263.462L197.04 340.42M323.166 263.462L196.185 285.267M197.04 340.42L196.185 285.267M197.04 340.42L69.6313 263.89M196.185 285.267L69.6313 263.89" stroke="#7300FF" stroke-width="2" stroke-linecap="round" stroke-linejoin="round"/>
</g>
<g filter="url(#filter2_d_626_161)">
<path d="M194.047 264.315C230.618 224.609 241.792 201.254 263.309 147.167C212.395 132.904 183.736 131.741 132.48 142.892C146.078 193.254 163.651 217.827 197.04 261.322C218.165 229.904 238.816 202.156 259.461 144.176C236.374 135.199 153.002 137.336 130.342 145.885C150.78 188.091 163.089 211.257 186.351 251.917M277.418 158.286C295.736 194.618 303.499 218.569 306.492 254.056M217.989 270.303C253.942 269.255 272.775 266.699 301.789 255.338M283.832 165.126C298.353 196.875 303.853 215.457 308.629 250.208M226.968 66.3629C256.529 82.1522 273.531 92.4013 301.789 114.676M226.113 61.6599C259.128 80.8936 276.9 92.5801 304.781 115.958M260.744 79.6168C278.938 90.748 288.341 97.6772 303.499 111.255M282.976 120.234C291.475 120.258 296.391 120.012 306.064 118.096M306.064 112.965C300.265 118.445 296.548 120.353 289.39 122.371M197.895 56.5293C165.781 81.029 152.873 95.9501 134.618 123.654M190.626 56.5293C167.004 78.0925 155.051 91.603 135.9 118.096M172.669 71.4934C160.486 77.2075 154.397 81.9377 147.872 99.2839M141.886 101.422C152.147 86.8851 162.654 79.3987 177.372 66.3629M89.7254 116.813C117.144 96.3979 133.23 86.1367 162.836 69.3557M91.0081 114.676C116.927 93.8333 132.732 82.4388 164.546 62.9425M124.784 85.6025C110.135 96.0839 102.313 102.115 89.7254 113.393M89.7254 111.255C92.9582 107.96 95.2322 105.889 100.842 101.422M87.1601 113.393C93.4519 118.101 97.0905 120.102 103.834 121.944M87.1601 118.096C94.9046 120.376 99.5856 120.655 108.537 119.806M101.697 124.937C111.166 123.908 116.771 121.583 126.494 113.393M141.886 103.559C137.831 109.985 135.229 113.393 132.48 119.806C131.197 122.799 133.763 125.364 137.611 125.792C147.017 126.837 154.812 127.781 165.829 128.785M77.3266 128.785C89.4489 128.18 95.5516 128.768 105.545 130.922M82.8847 123.654C92.9711 130.181 97.7488 134.18 104.262 142.039C94.5529 132.104 89.136 128.93 79.4643 126.647M83.7398 129.64C77.9438 169.539 77.5194 189.282 80.3194 221.135M81.602 130.922C73.0512 172.822 69.2033 186.076 75.6164 209.163M75.6164 150.162C72.6241 223.272 73.8264 239.703 82.8853 221.135M94.8566 127.074C106.367 133.891 103.834 139.901 99.9871 159.996M87.5883 254.056C121.431 266.869 141.442 270.359 178.656 270.303M171.815 272.44C137.028 273.449 119.051 269.805 89.2985 257.049M87.5883 250.208C93.0539 215.388 97.8033 191.93 113.669 159.996C114.522 158.279 116.793 157.535 119.654 158.286C124.027 159.432 125.886 162.228 129.06 167.691M85.023 245.505C90.2614 212.529 96.0066 193.558 110.676 159.14M120.509 157.003C117.03 153.866 115.568 151.941 112.386 154.437M108.111 275.433C137.927 296.886 156.089 307.413 191.482 323.318M101.27 274.578C133.383 296.412 152.37 307.41 188.489 324.173M94.0015 275.433C127.665 300.475 148.303 313.019 188.489 333.152M173.098 284.412C181.894 286.585 185.939 288.137 189.772 292.107M187.207 326.311C191.473 315.741 193.214 308.543 195.33 293.818M184.641 290.397C190.627 302.796 193.192 315.622 195.33 333.152M208.156 290.397C203.945 303.233 202.307 310.187 200.888 322.036M200.888 306.644C202.887 313.175 203.893 317.251 205.164 326.311M206.874 322.036C241.186 305.814 259.596 295.372 291.1 274.578M283.832 275.433C258.854 295.691 244.1 305.804 216.707 322.036M291.528 276.288C280.839 286.977 224.403 323.318 206.446 330.587M277.419 267.737C287.172 264.941 292.212 263.042 300.079 258.759M224.403 272.868C236.941 273.871 243.963 273.436 256.469 270.303M238.94 276.288C248.835 274.416 253.611 272.919 260.745 269.447M289.39 141.183C298.467 132.581 303.763 128.743 314.188 124.937M315.043 129.64C302.838 128.853 296.646 129.654 285.97 131.777M310.34 128.785C318.891 147.167 321.456 206.598 316.326 225.838M311.623 135.625C316.326 170.257 318.036 204.033 312.905 219.425M195.33 56.5293C224.925 78.6283 238.411 92.2839 255.614 119.379M257.752 119.379C242.366 95.936 232.388 83.0955 207.729 61.6599M203.026 57.3844C225.344 74.4312 235.451 84.7544 249.628 104.842M243.215 93.2983C239.506 84.3291 236.176 79.6291 224.403 72.7761M109.821 267.737C120.082 273.723 144.024 276.716 154.286 274.578" stroke="#7300FF" stroke-linecap="round"/>
</g>
<g filter="url(#filter3_d_626_161)">
<path d="M73.4787 240.862C87.4585 199.247 93.3938 182.898 96.9593 164.657C101.845 139.661 106.791 130.08 90.5802 124.122C71.0323 115.745 76.4647 130.878 70.8999 174.115C69.1398 187.786 70.9001 214.294 74.7616 242.512M180.024 53.9975C143.073 71.8718 124.736 83.0851 94.3805 104.26C80.6722 113.823 81.3901 119.001 90.9874 121.825C106.596 126.419 113.111 122.501 124.919 110.07C140.256 93.9249 159.122 78.4534 180.024 51.5654M172.152 135.472C187.217 130.338 197.94 127.336 216.534 130.338C234.179 133.186 242.322 134.526 255.488 140.606C258.609 142.048 259.923 145.201 259.967 149.659C260.197 173.034 239.083 224.783 201.604 257.752C199.568 259.542 192.782 259.522 191.289 257.752C159.393 219.919 139.887 199.631 133.334 152.767C132.52 146.687 134.148 142.269 139.713 139.796C146.952 136.578 151.564 135.07 160.615 132.77C183.935 126.976 197.009 126.607 220.335 135.472M97.2308 178.304C101.438 169.791 104.678 164.431 112.025 156.145C113.111 154.92 115.224 154.929 116.504 156.685C144.401 194.97 158.851 220.595 177.988 269.507M88.8158 199.111C83.6582 215.055 81.5373 225.999 82.4366 243.835C82.4366 256.806 87.214 257.829 94.652 264.507C100.64 269.884 147.314 284.369 172.83 273.83C180.167 270.8 180.295 264.102 176.631 256.671M213.684 52.6464C235.672 78.1832 248.973 95.6699 280.19 120.204C282.769 122.231 285.483 123.447 289.012 123.447C306.249 123.447 308.03 118.988 309.371 116.151C310.457 113.854 308.285 111.731 305.571 109.26C275.44 81.8313 249.787 72.2381 211.92 52.6464M240.558 273.425C266.753 276.668 284.533 274.506 302.449 262.481C308.421 258.472 312.311 252.701 311.407 244.78C307.926 214.288 287.305 163.529 281.208 156.761C280.438 155.907 277.427 155.102 275.787 157.438M275.787 157.438C249.321 195.135 227.664 228.735 214.498 262.481C213.655 264.642 213.955 268.886 216.127 270.452M275.787 157.438C242.398 202.566 213.005 265.318 216.127 270.452M216.127 270.452C233.364 282.883 255.895 278.965 282.633 267.075M91.4956 271.815C125.831 275.892 145.677 279.806 182.286 290.088C184.997 290.765 189.062 294.149 190.417 296.856C193.466 302.947 195.16 318.513 193.127 325.281C192.45 327.312 189.739 328.665 187.707 327.989C160.605 318.965 125.373 298.21 96.2384 274.522M300.856 271.138C289.519 281.24 283.145 286.026 271.722 293.472M254.106 304.301C236.233 314.112 224.972 319.867 208.033 327.312C206.697 327.899 203.968 328.419 202.613 327.312C195.16 321.221 199.225 302.947 201.604 296.179C203.29 293.472 205.842 292.341 208.711 290.765C222.261 283.32 265.571 275.719 302.449 271.815M187.896 57.6456C157.765 73.2068 141.07 93.0459 134.148 116.151C132.732 120.88 133.334 122.045 137.542 122.636C182.266 128.915 208.934 128.91 255.488 122.636C259.967 121.555 261.188 119.393 259.967 116.151C245.919 78.8587 221.692 67.2388 204.862 57.1052C198.618 53.3459 195.638 53.6472 187.896 57.6456ZM319.15 240.006C323.257 193.989 324.209 168.714 317.118 126.982C316.747 124.803 313.723 122.379 312.375 122.245C305.599 121.568 297.469 125.629 292.726 133.75C291.371 135.78 290.962 137.811 291.371 139.841C299.691 181.179 305.884 203.013 319.15 240.006Z" stroke="#00F6FF" stroke-linecap="round" stroke-linejoin="round"/>
</g>
<g filter="url(#filter4_d_626_161)">
<path d="M71.0357 115.34C87.7054 101.471 169.932 52.205 196.583 39M71.0357 115.34C68.6021 173.202 69.0404 205.806 69.8141 263.967M71.0357 115.34L111.075 130.338M196.583 39C239.877 60.6572 293.403 94.4967 322.265 115.07M196.583 39C218.874 61.334 259.967 104.261 282.09 130.338M196.583 39C180.024 53.9978 126.05 114.124 111.075 130.338M322.265 115.07L282.09 130.338M322.265 115.07C325.926 142.549 325.248 223.763 323.215 263.967M282.09 130.338C215.302 128.41 177.861 128.351 111.075 130.338M282.09 130.338L323.215 263.967M282.09 130.338C266.979 158.115 222.939 240.006 196.583 285.586M69.8141 263.967L111.075 130.338M69.8141 263.967C92.8508 270.453 182.964 285.586 196.583 285.586M69.8141 263.967C103.692 287.381 168.736 326.635 196.854 340.848M111.075 130.338C140.928 193.645 161.181 226.477 196.583 285.586M196.583 285.586L196.854 340.848M196.583 285.586C222.262 283.998 303.567 269.785 323.215 263.967M196.854 340.848C231.747 323.251 302.449 278.583 323.215 263.967" stroke="#00F6FF" stroke-width="2" stroke-linecap="round" stroke-linejoin="round"/>
</g>
<g filter="url(#filter5_d_626_161)">
<circle cx="142.314" cy="53.9643" r="1.28264" fill="#88FFEB" fill-opacity="0.1"/>
<circle cx="152.575" cy="47.9783" r="0.427546" fill="#88FFEB" fill-opacity="0.1"/>
<circle cx="164.974" cy="48.4059" r="0.855093" fill="#88FFEB" fill-opacity="0.1"/>
<circle cx="153.43" cy="56.5291" r="0.427546" fill="#88FFEB" fill-opacity="0.1"/>
<circle cx="168.822" cy="41.1375" r="0.427546" fill="#88FFEB" fill-opacity="0.1"/>
<circle cx="113.241" cy="68.5004" r="1.28264" fill="#88FFEB" fill-opacity="0.1"/>
<circle cx="110.676" cy="79.617" r="0.427546" fill="#88FFEB" fill-opacity="0.1"/>
<circle cx="104.69" cy="79.617" r="0.427546" fill="#88FFEB" fill-opacity="0.1"/>
<circle cx="94.429" cy="81.327" r="0.427546" fill="#88FFEB" fill-opacity="0.1"/>
<circle cx="93.574" cy="87.3123" r="0.427546" fill="#88FFEB" fill-opacity="0.1"/>
<circle cx="98.277" cy="92.0162" r="0.855093" fill="#88FFEB" fill-opacity="0.1"/>
<circle cx="54.6671" cy="153.583" r="0.855093" fill="#88FFEB" fill-opacity="0.1"/>
<circle cx="62.3629" cy="157.858" r="0.855093" fill="#88FFEB" fill-opacity="0.1"/>
<circle cx="58.9425" cy="163.843" r="0.855093" fill="#88FFEB" fill-opacity="0.1"/>
<circle cx="61.9354" cy="172.822" r="0.427546" fill="#88FFEB" fill-opacity="0.1"/>
<circle cx="58.0875" cy="184.366" r="0.855093" fill="#88FFEB" fill-opacity="0.1"/>
<circle cx="63.2179" cy="193.772" r="0.855093" fill="#88FFEB" fill-opacity="0.1"/>
<circle cx="62.3629" cy="198.047" r="0.855093" fill="#88FFEB" fill-opacity="0.1"/>
<circle cx="61.9354" cy="191.635" r="0.427546" fill="#88FFEB" fill-opacity="0.1"/>
<circle cx="58.5149" cy="198.474" r="0.427546" fill="#88FFEB" fill-opacity="0.1"/>
<circle cx="55.5223" cy="205.743" r="2.56528" fill="#88FFEB" fill-opacity="0.1"/>
<circle cx="64.5008" cy="212.156" r="0.427546" fill="#88FFEB" fill-opacity="0.1"/>
<circle cx="61.0804" cy="223.272" r="0.427546" fill="#88FFEB" fill-opacity="0.1"/>
<circle cx="66.2107" cy="224.128" r="0.427546" fill="#88FFEB" fill-opacity="0.1"/>
<circle cx="64.0734" cy="229.686" r="0.855093" fill="#88FFEB" fill-opacity="0.1"/>
<circle cx="43.9783" cy="195.91" r="0.427546" fill="#88FFEB" fill-opacity="0.1"/>
<circle cx="35.8551" cy="194.627" r="0.855093" fill="#88FFEB" fill-opacity="0.1"/>
<circle cx="88.4432" cy="293.39" r="0.427546" fill="#88FFEB" fill-opacity="0.1"/>
<circle cx="96.9944" cy="285.694" r="0.427546" fill="#88FFEB" fill-opacity="0.1"/>
<circle cx="104.69" cy="291.68" r="0.427546" fill="#88FFEB" fill-opacity="0.1"/>
<circle cx="106.828" cy="295.528" r="0.855093" fill="#88FFEB" fill-opacity="0.1"/>
<circle cx="111.103" cy="298.948" r="0.855093" fill="#88FFEB" fill-opacity="0.1"/>
<circle cx="114.951" cy="301.941" r="0.427546" fill="#88FFEB" fill-opacity="0.1"/>
<circle cx="120.509" cy="304.079" r="0.855093" fill="#88FFEB" fill-opacity="0.1"/>
<circle cx="119.226" cy="309.637" r="0.427546" fill="#88FFEB" fill-opacity="0.1"/>
<circle cx="121.792" cy="315.622" r="1.28264" fill="#88FFEB" fill-opacity="0.1"/>
<circle cx="128.633" cy="312.202" r="0.427546" fill="#88FFEB" fill-opacity="0.1"/>
<circle cx="126.923" cy="311.347" r="0.427546" fill="#88FFEB" fill-opacity="0.1"/>
<circle cx="129.916" cy="319.47" r="0.855093" fill="#88FFEB" fill-opacity="0.1"/>
<circle cx="153.43" cy="327.594" r="1.28264" fill="#88FFEB" fill-opacity="0.1"/>
<circle cx="179.083" cy="341.275" r="0.427546" fill="#88FFEB" fill-opacity="0.1"/>
<circle cx="232.954" cy="330.16" r="1.28264" fill="#88FFEB" fill-opacity="0.1"/>
<circle cx="248.774" cy="325.456" r="1.71019" fill="#88FFEB" fill-opacity="0.1"/>
<circle cx="235.091" cy="342.558" r="0.855093" fill="#88FFEB" fill-opacity="0.1"/>
<circle cx="260.745" cy="332.297" r="0.855093" fill="#88FFEB" fill-opacity="0.1"/>
<circle cx="251.338" cy="316.05" r="0.855093" fill="#88FFEB" fill-opacity="0.1"/>
<circle cx="271.005" cy="310.92" r="0.855093" fill="#88FFEB" fill-opacity="0.1"/>
<circle cx="273.571" cy="313.485" r="0.855093" fill="#88FFEB" fill-opacity="0.1"/>
<circle cx="272.715" cy="315.195" r="0.855093" fill="#88FFEB" fill-opacity="0.1"/>
<circle cx="288.108" cy="322.891" r="1.71019" fill="#88FFEB" fill-opacity="0.1"/>
<circle cx="293.666" cy="308.782" r="0.427546" fill="#88FFEB" fill-opacity="0.1"/>
<circle cx="295.376" cy="293.39" r="0.427546" fill="#88FFEB" fill-opacity="0.1"/>
<circle cx="309.912" cy="279.709" r="0.427546" fill="#88FFEB" fill-opacity="0.1"/>
<circle cx="331.289" cy="244.65" r="1.28264" fill="#88FFEB" fill-opacity="0.1"/>
<circle cx="336.42" cy="219.852" r="1.28264" fill="#88FFEB" fill-opacity="0.1"/>
<circle cx="343.261" cy="223.272" r="0.427546" fill="#88FFEB" fill-opacity="0.1"/>
<circle cx="342.406" cy="227.548" r="0.427546" fill="#88FFEB" fill-opacity="0.1"/>
<circle cx="329.58" cy="233.534" r="0.427546" fill="#88FFEB" fill-opacity="0.1"/>
<circle cx="339.413" cy="210.874" r="0.855093" fill="#88FFEB" fill-opacity="0.1"/>
<circle cx="334.71" cy="196.764" r="0.427546" fill="#88FFEB" fill-opacity="0.1"/>
<circle cx="338.13" cy="178.808" r="1.28264" fill="#88FFEB" fill-opacity="0.1"/>
<circle cx="336.848" cy="169.83" r="0.855093" fill="#88FFEB" fill-opacity="0.1"/>
<circle cx="329.58" cy="171.967" r="0.427546" fill="#88FFEB" fill-opacity="0.1"/>
<circle cx="331.29" cy="176.242" r="0.427546" fill="#88FFEB" fill-opacity="0.1"/>
<circle cx="330.862" cy="164.699" r="0.855093" fill="#88FFEB" fill-opacity="0.1"/>
<circle cx="347.537" cy="162.561" r="0.427546" fill="#88FFEB" fill-opacity="0.1"/>
<circle cx="333" cy="157.43" r="0.427546" fill="#88FFEB" fill-opacity="0.1"/>
<circle cx="329.58" cy="150.589" r="1.28264" fill="#88FFEB" fill-opacity="0.1"/>
<circle cx="329.58" cy="140.329" r="0.427546" fill="#88FFEB" fill-opacity="0.1"/>
<circle cx="331.29" cy="139.473" r="0.427546" fill="#88FFEB" fill-opacity="0.1"/>
<circle cx="327.014" cy="135.198" r="0.427546" fill="#88FFEB" fill-opacity="0.1"/>
<circle cx="330.862" cy="129.64" r="0.855093" fill="#88FFEB" fill-opacity="0.1"/>
<circle cx="236.375" cy="56.5291" r="0.427546" fill="#88FFEB" fill-opacity="0.1"/>
<circle cx="238.939" cy="53.1092" r="0.427546" fill="#88FFEB" fill-opacity="0.1"/>
<circle cx="244.926" cy="54.8191" r="0.427546" fill="#88FFEB" fill-opacity="0.1"/>
<circle cx="248.346" cy="56.5291" r="0.427546" fill="#88FFEB" fill-opacity="0.1"/>
<circle cx="251.338" cy="58.6676" r="0.855093" fill="#88FFEB" fill-opacity="0.1"/>
<circle cx="253.904" cy="61.232" r="0.855093" fill="#88FFEB" fill-opacity="0.1"/>
<circle cx="259.462" cy="62.5154" r="0.427546" fill="#88FFEB" fill-opacity="0.1"/>
<circle cx="256.469" cy="66.3629" r="0.855093" fill="#88FFEB" fill-opacity="0.1"/>
<circle cx="261.172" cy="70.2107" r="0.427546" fill="#88FFEB" fill-opacity="0.1"/>
<circle cx="277.419" cy="69.3563" r="0.427546" fill="#88FFEB" fill-opacity="0.1"/>
<circle cx="284.26" cy="71.9207" r="0.427546" fill="#88FFEB" fill-opacity="0.1"/>
<circle cx="286.825" cy="73.6313" r="1.28264" fill="#88FFEB" fill-opacity="0.1"/>
<circle cx="281.694" cy="76.1961" r="0.427546" fill="#88FFEB" fill-opacity="0.1"/>
<circle cx="283.832" cy="82.61" r="0.855093" fill="#88FFEB" fill-opacity="0.1"/>
<circle cx="293.666" cy="77.0516" r="0.427546" fill="#88FFEB" fill-opacity="0.1"/>
<circle cx="295.803" cy="83.4645" r="0.855093" fill="#88FFEB" fill-opacity="0.1"/>
<circle cx="300.507" cy="76.1961" r="0.427546" fill="#88FFEB" fill-opacity="0.1"/>
<circle cx="301.361" cy="84.7479" r="0.427546" fill="#88FFEB" fill-opacity="0.1"/>
<circle cx="300.934" cy="94.5807" r="0.855093" fill="#88FFEB" fill-opacity="0.1"/>
<circle cx="310.767" cy="98.4285" r="0.427546" fill="#88FFEB" fill-opacity="0.1"/>
</g>
</g>
<defs>
<filter id="filter0_d_626_161" x="61.6313" y="31.4277" width="269.535" height="316.993" filterUnits="userSpaceOnUse" color-interpolation-filters="sRGB">
<feFlood flood-opacity="0" result="BackgroundImageFix"/>
<feColorMatrix in="SourceAlpha" type="matrix" values="0 0 0 0 0 0 0 0 0 0 0 0 0 0 0 0 0 0 127 0" result="hardAlpha"/>
<feOffset/>
<feGaussianBlur stdDeviation="4"/>
<feComposite in2="hardAlpha" operator="out"/>
<feColorMatrix type="matrix" values="0 0 0 0 0.45098 0 0 0 0 0 0 0 0 0 1 0 0 0 1 0"/>
<feBlend mode="normal" in2="BackgroundImageFix" result="effect1_dropShadow_626_161"/>
<feBlend mode="normal" in="SourceGraphic" in2="effect1_dropShadow_626_161" result="shape"/>
</filter>
<filter id="filter1_d_626_161" x="60.6313" y="30.4277" width="271.535" height="318.993" filterUnits="userSpaceOnUse" color-interpolation-filters="sRGB">
<feFlood flood-opacity="0" result="BackgroundImageFix"/>
<feColorMatrix in="SourceAlpha" type="matrix" values="0 0 0 0 0 0 0 0 0 0 0 0 0 0 0 0 0 0 127 0" result="hardAlpha"/>
<feOffset/>
<feGaussianBlur stdDeviation="4"/>
<feColorMatrix type="matrix" values="0 0 0 0 0.45098 0 0 0 0 0 0 0 0 0 1 0 0 0 1 0"/>
<feBlend mode="normal" in2="BackgroundImageFix" result="effect1_dropShadow_626_161"/>
<feBlend mode="normal" in="SourceGraphic" in2="effect1_dropShadow_626_161" result="shape"/>
</filter>
<filter id="filter2_d_626_161" x="63.915" y="48.0293" width="263.543" height="293.623" filterUnits="userSpaceOnUse" color-interpolation-filters="sRGB">
<feFlood flood-opacity="0" result="BackgroundImageFix"/>
<feColorMatrix in="SourceAlpha" type="matrix" values="0 0 0 0 0 0 0 0 0 0 0 0 0 0 0 0 0 0 127 0" result="hardAlpha"/>
<feOffset/>
<feGaussianBlur stdDeviation="4"/>
<feColorMatrix type="matrix" values="0 0 0 0 0.45098 0 0 0 0 0 0 0 0 0 1 0 0 0 1 0"/>
<feBlend mode="normal" in2="BackgroundImageFix" result="effect1_dropShadow_626_161"/>
<feBlend mode="normal" in="SourceGraphic" in2="effect1_dropShadow_626_161" result="shape"/>
</filter>
<filter id="filter3_d_626_161" x="61.7158" y="43.0654" width="269.127" height="293.6" filterUnits="userSpaceOnUse" color-interpolation-filters="sRGB">
<feFlood flood-opacity="0" result="BackgroundImageFix"/>
<feColorMatrix in="SourceAlpha" type="matrix" values="0 0 0 0 0 0 0 0 0 0 0 0 0 0 0 0 0 0 127 0" result="hardAlpha"/>
<feOffset/>
<feGaussianBlur stdDeviation="4"/>
<feColorMatrix type="matrix" values="0 0 0 0 0 0 0 0 0 0.964706 0 0 0 0 1 0 0 0 1 0"/>
<feBlend mode="normal" in2="BackgroundImageFix" result="effect1_dropShadow_626_161"/>
<feBlend mode="normal" in="SourceGraphic" in2="effect1_dropShadow_626_161" result="shape"/>
</filter>
<filter id="filter4_d_626_161" x="60.2036" y="30" width="273.672" height="319.848" filterUnits="userSpaceOnUse" color-interpolation-filters="sRGB">
<feFlood flood-opacity="0" result="BackgroundImageFix"/>
<feColorMatrix in="SourceAlpha" type="matrix" values="0 0 0 0 0 0 0 0 0 0 0 0 0 0 0 0 0 0 127 0" result="hardAlpha"/>
<feOffset/>
<feGaussianBlur stdDeviation="4"/>
<feColorMatrix type="matrix" values="0 0 0 0 0 0 0 0 0 0.964706 0 0 0 0 1 0 0 0 1 0"/>
<feBlend mode="normal" in2="BackgroundImageFix" result="effect1_dropShadow_626_161"/>
<feBlend mode="normal" in="SourceGraphic" in2="effect1_dropShadow_626_161" result="shape"/>
</filter>
<filter id="filter5_d_626_161" x="27" y="32.71" width="328.965" height="318.703" filterUnits="userSpaceOnUse" color-interpolation-filters="sRGB">
<feFlood flood-opacity="0" result="BackgroundImageFix"/>
<feColorMatrix in="SourceAlpha" type="matrix" values="0 0 0 0 0 0 0 0 0 0 0 0 0 0 0 0 0 0 127 0" result="hardAlpha"/>
<feOffset/>
<feGaussianBlur stdDeviation="4"/>
<feColorMatrix type="matrix" values="0 0 0 0 0.533333 0 0 0 0 1 0 0 0 0 0.921569 0 0 0 1 0"/>
<feBlend mode="normal" in2="BackgroundImageFix" result="effect1_dropShadow_626_161"/>
<feBlend mode="normal" in="SourceGraphic" in2="effect1_dropShadow_626_161" result="shape"/>
</filter>
<radialGradient id="paint0_radial_626_161" cx="0" cy="0" r="1" gradientUnits="userSpaceOnUse" gradientTransform="translate(191 191) rotate(90) scale(206)">
<stop offset="0.725962" stop-color="#002D2F"/>
<stop offset="1" stop-color="#050017"/>
</radialGradient>
<linearGradient id="paint1_linear_626_161" x1="0" y1="0" x2="382" y2="382" gradientUnits="userSpaceOnUse">
<stop offset="0.254808" stop-color="#ECF4FF" stop-opacity="0.5"/>
<stop offset="0.4" stop-color="#ECF4FF" stop-opacity="0"/>
<stop offset="0.6" stop-color="#ECF4FF" stop-opacity="0"/>
<stop offset="0.75" stop-color="#ECF4FF" stop-opacity="0.5"/>
</linearGradient>
<radialGradient id="paint2_radial_626_161" cx="0" cy="0" r="1" gradientUnits="userSpaceOnUse" gradientTransform="translate(196.399 189.924) rotate(90) scale(150.496 126.768)">
<stop stop-color="#1C003A"/>
<stop offset="1" stop-color="#08004E"/>
</radialGradient>
<clipPath id="clip0_626_161">
<rect width="382" height="382" fill="white"/>
</clipPath>
</defs>
</svg>
