<svg width="338" height="338" viewBox="0 0 338 338" fill="none" xmlns="http://www.w3.org/2000/svg">
<g filter="url(#filter0_d_630_112)">
<path d="M43.9135 94.031L169.612 17.9277L294.883 93.6035L296.166 241.962L170.04 318.92L42.6309 242.39L43.9135 94.031Z" fill="url(#paint0_radial_630_112)"/>
</g>
<g filter="url(#filter1_d_630_112)">
<path d="M84.5304 108.995H254.694M84.5304 108.995L169.612 17.9277M84.5304 108.995L44.341 94.031M84.5304 108.995L42.6309 242.39M84.5304 108.995L169.185 263.767M254.694 108.995L169.612 17.9277M254.694 108.995L294.883 93.6035M254.694 108.995L296.166 241.962M254.694 108.995L169.185 263.767M169.612 17.9277L44.341 94.031M169.612 17.9277L294.883 93.6035M44.341 94.031L42.6309 242.39M294.883 93.6035L296.166 241.962M296.166 241.962L170.04 318.92M296.166 241.962L169.185 263.767M170.04 318.92L169.185 263.767M170.04 318.92L42.6309 242.39M169.185 263.767L42.6309 242.39" stroke="#7300FF" stroke-width="2" stroke-linecap="round" stroke-linejoin="round"/>
</g>
<g filter="url(#filter2_d_630_112)">
<path d="M167.046 242.815C203.617 203.109 214.792 179.754 236.309 125.667C185.395 111.404 156.735 110.241 105.48 121.392C119.078 171.754 136.651 196.327 170.039 239.822C191.165 208.404 211.815 180.656 232.461 122.676C209.373 113.699 126.002 115.836 103.342 124.385C123.779 166.591 136.089 189.757 159.35 230.417M250.418 136.786C268.735 173.118 276.498 197.069 279.491 232.556M190.989 248.803C226.942 247.755 245.775 245.199 274.788 233.838M256.831 143.626C271.353 175.375 276.853 193.957 281.629 228.708M199.967 44.8629C229.528 60.6522 246.531 70.9013 274.788 93.1756M199.112 40.1599C232.127 59.3936 249.9 71.0801 277.781 94.4583M233.744 58.1168C251.937 69.248 261.34 76.1772 276.498 89.7552M255.976 98.7337C264.474 98.7579 269.391 98.5116 279.063 96.596M279.063 91.4654C273.264 96.9445 269.547 98.8526 262.389 100.871M170.894 35.0293C138.781 59.529 125.872 74.4501 107.617 102.154M163.626 35.0293C140.003 56.5925 128.05 70.103 108.9 96.596M145.669 49.9934C133.486 55.7075 127.397 60.4377 120.871 77.7839M114.886 79.9217C125.147 65.3851 135.654 57.8987 150.372 44.8629M62.7249 95.3133C90.1439 74.8979 106.23 64.6367 135.835 47.8557M64.0076 93.1756C89.9269 72.3333 105.732 60.9388 137.546 41.4425M97.7837 64.1025C83.1347 74.5839 75.3121 80.6153 62.7249 91.893M62.7249 89.7552C65.9577 86.4603 68.2317 84.3892 73.8411 79.9217M60.1597 91.893C66.4514 96.6012 70.09 98.602 76.834 100.444M60.1597 96.596C67.9041 98.8764 72.5852 99.1549 81.537 98.3062M74.6962 103.437C84.1659 102.408 89.771 100.083 99.4939 91.893M114.886 82.0594C110.83 88.4846 108.228 91.893 105.48 98.3062C104.197 101.299 106.762 103.864 110.61 104.292C120.016 105.337 127.811 106.281 138.828 107.285M50.3261 107.285C62.4484 106.68 68.5512 107.268 78.5442 109.422M55.8842 102.154C65.9707 108.681 70.7483 112.68 77.2615 120.539C67.5525 110.604 62.1355 107.43 52.4638 105.147M56.7393 108.14C50.9433 148.039 50.519 167.782 53.3189 199.635M54.6016 109.422C46.0507 151.322 42.2028 164.576 48.6159 187.663M48.6159 128.662C45.6237 201.772 46.8259 218.203 55.8848 199.635M67.8561 105.574C79.3667 112.391 76.834 118.401 72.9866 138.496M60.5878 232.556C94.4306 245.369 114.441 248.859 151.655 248.803M144.814 250.94C110.027 251.949 92.0501 248.305 62.298 235.549M60.5878 228.708C66.0535 193.888 70.8028 170.43 86.6681 138.496C87.5211 136.779 89.7925 136.035 92.6538 136.786C97.0267 137.932 98.8854 140.728 102.06 146.191M58.0225 224.005C63.2609 191.029 69.0061 172.058 83.6753 137.64M93.5089 135.503C90.0294 132.366 88.5674 130.441 85.3855 132.937M81.11 253.933C110.927 275.386 129.088 285.913 164.482 301.818M74.2693 253.078C106.382 274.912 125.369 285.91 161.489 302.673M67.001 253.933C100.665 278.975 121.302 291.519 161.489 311.652M146.097 262.912C154.893 265.085 158.938 266.637 162.771 270.607M160.206 304.811C164.473 294.241 166.214 287.043 168.329 272.318M157.641 268.897C163.626 281.296 166.192 294.122 168.329 311.652M181.156 268.897C176.945 281.733 175.307 288.687 173.888 300.536M173.888 285.144C175.886 291.675 176.893 295.751 178.163 304.811M179.873 300.536C214.185 284.314 232.596 273.872 264.1 253.078M256.832 253.933C231.854 274.191 217.1 284.304 189.707 300.536M264.527 254.788C253.839 265.477 197.403 301.818 179.446 309.087M250.418 246.237C260.172 243.441 265.212 241.542 273.078 237.259M197.403 251.368C209.941 252.371 216.962 251.936 229.469 248.803M211.939 254.788C221.834 252.916 226.611 251.419 233.744 247.947M262.389 119.683C271.466 111.081 276.763 107.243 287.187 103.437M288.043 108.14C275.838 107.353 269.646 108.154 258.969 110.277M283.339 107.285C291.89 125.667 294.456 185.098 289.325 204.338M284.622 114.125C289.325 148.757 291.035 182.533 285.905 197.925M168.329 35.0293C197.925 57.1283 211.411 70.7839 228.614 97.8786M230.751 97.8786C215.365 74.436 205.387 61.5955 180.728 40.1599M176.025 35.8844C198.344 52.9312 208.45 63.2544 222.628 83.342M216.215 71.7983C212.506 62.8291 209.176 58.1291 197.403 51.2761M82.8202 246.237C93.0813 252.223 117.024 255.216 127.285 253.078" stroke="#7300FF" stroke-linecap="round"/>
</g>
<g filter="url(#filter3_d_630_112)">
<path d="M46.4787 219.362C60.4585 177.747 66.3938 161.398 69.9593 143.157C74.8455 118.161 79.7915 108.58 63.5802 102.622C44.0323 94.2452 49.4647 109.378 43.8999 152.615C42.1398 166.286 43.9001 192.794 47.7616 221.012M153.024 32.4975C116.073 50.3718 97.7357 61.5851 67.3805 82.7604C53.6722 92.3232 54.3901 97.5008 63.9874 100.325C79.5959 104.919 86.1108 101.001 97.919 88.5704C113.256 72.4249 132.122 56.9534 153.024 30.0654M145.152 113.972C160.217 108.838 170.94 105.836 189.534 108.838C207.179 111.686 215.322 113.026 228.488 119.106C231.609 120.548 232.923 123.701 232.967 128.159C233.197 151.534 212.083 203.283 174.604 236.252C172.568 238.042 165.782 238.022 164.289 236.252C132.393 198.419 112.887 178.131 106.334 131.267C105.52 125.187 107.148 120.769 112.713 118.296C119.952 115.078 124.564 113.57 133.615 111.27C156.935 105.476 170.009 105.107 193.335 113.972M70.2308 156.804C74.4383 148.291 77.6776 142.931 85.025 134.645C86.1108 133.42 88.224 133.429 89.5039 135.185C117.401 173.47 131.851 199.095 150.988 248.007M61.8158 177.611C56.6582 193.555 54.5373 204.499 55.4366 222.335C55.4366 235.306 60.214 236.329 67.652 243.007C73.64 248.384 120.314 262.869 145.83 252.33C153.167 249.3 153.295 242.602 149.631 235.171M186.684 31.1464C208.672 56.6832 221.973 74.1699 253.19 98.7041C255.769 100.731 258.483 101.947 262.012 101.947C279.249 101.947 281.03 97.488 282.371 94.6506C283.457 92.3536 281.285 90.2307 278.571 87.7597C248.44 60.3313 222.787 50.7381 184.92 31.1464M213.558 251.925C239.753 255.168 257.533 253.006 275.449 240.981C281.421 236.972 285.311 231.201 284.407 223.28C280.926 192.788 260.305 142.029 254.208 135.261C253.438 134.407 250.427 133.602 248.787 135.938M248.787 135.938C222.321 173.635 200.664 207.235 187.498 240.981C186.655 243.142 186.955 247.386 189.127 248.952M248.787 135.938C215.398 181.066 186.005 243.818 189.127 248.952M189.127 248.952C206.364 261.383 228.895 257.465 255.633 245.575M64.4956 250.315C98.8305 254.392 118.677 258.306 155.286 268.588C157.997 269.265 162.062 272.649 163.417 275.356C166.466 281.447 168.16 297.013 166.127 303.781C165.45 305.812 162.739 307.165 160.707 306.489C133.605 297.465 98.3728 276.71 69.2384 253.022M273.856 249.638C262.519 259.74 256.145 264.526 244.722 271.972M227.106 282.801C209.233 292.612 197.972 298.367 181.033 305.812C179.697 306.399 176.968 306.919 175.613 305.812C168.16 299.721 172.225 281.447 174.604 274.679C176.29 271.972 178.842 270.841 181.711 269.265C195.261 261.82 238.571 254.219 275.449 250.315M160.896 36.1456C130.765 51.7068 114.07 71.5459 107.148 94.6506C105.732 99.3796 106.334 100.545 110.542 101.136C155.266 107.415 181.934 107.41 228.488 101.136C232.967 100.055 234.188 97.8934 232.967 94.6506C218.919 57.3587 194.692 45.7388 177.862 35.6052C171.618 31.8459 168.638 32.1472 160.896 36.1456ZM292.15 218.506C296.257 172.489 297.209 147.214 290.118 105.482C289.747 103.303 286.723 100.879 285.375 100.745C278.599 100.068 270.469 104.129 265.726 112.25C264.371 114.28 263.962 116.311 264.371 118.341C272.691 159.679 278.884 181.513 292.15 218.506Z" stroke="#00F6FF" stroke-linecap="round" stroke-linejoin="round"/>
</g>
<g filter="url(#filter4_d_630_112)">
<path d="M44.0362 93.8402C60.7059 79.9707 142.933 30.705 169.583 17.5M44.0362 93.8402C41.6025 151.702 42.0409 184.306 42.8146 242.467M44.0362 93.8402L84.0754 108.838M169.583 17.5C212.878 39.1572 266.404 72.9967 295.266 93.57M169.583 17.5C191.874 39.834 232.967 82.7607 255.091 108.838M169.583 17.5C153.024 32.4978 99.0509 92.6236 84.0754 108.838M295.266 93.57L255.091 108.838M295.266 93.57C298.926 121.049 298.249 202.263 296.216 242.467M255.091 108.838C188.303 106.91 150.862 106.851 84.0754 108.838M255.091 108.838L296.216 242.467M255.091 108.838C239.98 136.615 195.94 218.506 169.583 264.086M42.8146 242.467L84.0754 108.838M42.8146 242.467C65.8513 248.953 155.965 264.086 169.583 264.086M42.8146 242.467C76.692 265.881 141.736 305.135 169.855 319.348M84.0754 108.838C113.928 172.145 134.181 204.977 169.583 264.086M169.583 264.086L169.855 319.348M169.583 264.086C195.262 262.498 276.567 248.285 296.216 242.467M169.855 319.348C204.748 301.751 275.45 257.083 296.216 242.467" stroke="#00F6FF" stroke-width="2" stroke-linecap="round" stroke-linejoin="round"/>
</g>
<g filter="url(#filter5_d_630_112)">
<circle cx="115.314" cy="32.4643" r="1.28264" fill="#88FFEB" fill-opacity="0.1"/>
<circle cx="125.575" cy="26.4783" r="0.427546" fill="#88FFEB" fill-opacity="0.1"/>
<circle cx="137.974" cy="26.9059" r="0.855093" fill="#88FFEB" fill-opacity="0.1"/>
<circle cx="126.43" cy="35.0291" r="0.427546" fill="#88FFEB" fill-opacity="0.1"/>
<circle cx="141.822" cy="19.6375" r="0.427546" fill="#88FFEB" fill-opacity="0.1"/>
<circle cx="86.2406" cy="47.0004" r="1.28264" fill="#88FFEB" fill-opacity="0.1"/>
<circle cx="83.6756" cy="58.117" r="0.427546" fill="#88FFEB" fill-opacity="0.1"/>
<circle cx="77.6902" cy="58.117" r="0.427546" fill="#88FFEB" fill-opacity="0.1"/>
<circle cx="67.429" cy="59.827" r="0.427546" fill="#88FFEB" fill-opacity="0.1"/>
<circle cx="66.574" cy="65.8123" r="0.427546" fill="#88FFEB" fill-opacity="0.1"/>
<circle cx="71.277" cy="70.5162" r="0.855093" fill="#88FFEB" fill-opacity="0.1"/>
<circle cx="27.6671" cy="132.083" r="0.855093" fill="#88FFEB" fill-opacity="0.1"/>
<circle cx="35.3629" cy="136.358" r="0.855093" fill="#88FFEB" fill-opacity="0.1"/>
<circle cx="31.9425" cy="142.343" r="0.855093" fill="#88FFEB" fill-opacity="0.1"/>
<circle cx="34.9354" cy="151.322" r="0.427546" fill="#88FFEB" fill-opacity="0.1"/>
<circle cx="31.0875" cy="162.866" r="0.855093" fill="#88FFEB" fill-opacity="0.1"/>
<circle cx="36.2179" cy="172.272" r="0.855093" fill="#88FFEB" fill-opacity="0.1"/>
<circle cx="35.3629" cy="176.547" r="0.855093" fill="#88FFEB" fill-opacity="0.1"/>
<circle cx="34.9354" cy="170.135" r="0.427546" fill="#88FFEB" fill-opacity="0.1"/>
<circle cx="31.5149" cy="176.974" r="0.427546" fill="#88FFEB" fill-opacity="0.1"/>
<circle cx="28.5223" cy="184.243" r="2.56528" fill="#88FFEB" fill-opacity="0.1"/>
<circle cx="37.5008" cy="190.656" r="0.427546" fill="#88FFEB" fill-opacity="0.1"/>
<circle cx="34.0804" cy="201.772" r="0.427546" fill="#88FFEB" fill-opacity="0.1"/>
<circle cx="39.2108" cy="202.628" r="0.427546" fill="#88FFEB" fill-opacity="0.1"/>
<circle cx="37.0734" cy="208.186" r="0.855093" fill="#88FFEB" fill-opacity="0.1"/>
<circle cx="16.9783" cy="174.41" r="0.427546" fill="#88FFEB" fill-opacity="0.1"/>
<circle cx="8.85509" cy="173.127" r="0.855093" fill="#88FFEB" fill-opacity="0.1"/>
<circle cx="61.4432" cy="271.89" r="0.427546" fill="#88FFEB" fill-opacity="0.1"/>
<circle cx="69.9944" cy="264.194" r="0.427546" fill="#88FFEB" fill-opacity="0.1"/>
<circle cx="77.6902" cy="270.18" r="0.427546" fill="#88FFEB" fill-opacity="0.1"/>
<circle cx="79.8278" cy="274.028" r="0.855093" fill="#88FFEB" fill-opacity="0.1"/>
<circle cx="84.1031" cy="277.448" r="0.855093" fill="#88FFEB" fill-opacity="0.1"/>
<circle cx="87.951" cy="280.441" r="0.427546" fill="#88FFEB" fill-opacity="0.1"/>
<circle cx="93.5094" cy="282.579" r="0.855093" fill="#88FFEB" fill-opacity="0.1"/>
<circle cx="92.2264" cy="288.137" r="0.427546" fill="#88FFEB" fill-opacity="0.1"/>
<circle cx="94.7924" cy="294.122" r="1.28264" fill="#88FFEB" fill-opacity="0.1"/>
<circle cx="101.633" cy="290.702" r="0.427546" fill="#88FFEB" fill-opacity="0.1"/>
<circle cx="99.9227" cy="289.847" r="0.427546" fill="#88FFEB" fill-opacity="0.1"/>
<circle cx="102.916" cy="297.97" r="0.855093" fill="#88FFEB" fill-opacity="0.1"/>
<circle cx="126.43" cy="306.094" r="1.28264" fill="#88FFEB" fill-opacity="0.1"/>
<circle cx="152.083" cy="319.775" r="0.427546" fill="#88FFEB" fill-opacity="0.1"/>
<circle cx="205.954" cy="308.66" r="1.28264" fill="#88FFEB" fill-opacity="0.1"/>
<circle cx="221.774" cy="303.956" r="1.71019" fill="#88FFEB" fill-opacity="0.1"/>
<circle cx="208.091" cy="321.058" r="0.855093" fill="#88FFEB" fill-opacity="0.1"/>
<circle cx="233.745" cy="310.797" r="0.855093" fill="#88FFEB" fill-opacity="0.1"/>
<circle cx="224.338" cy="294.55" r="0.855093" fill="#88FFEB" fill-opacity="0.1"/>
<circle cx="244.005" cy="289.42" r="0.855093" fill="#88FFEB" fill-opacity="0.1"/>
<circle cx="246.571" cy="291.985" r="0.855093" fill="#88FFEB" fill-opacity="0.1"/>
<circle cx="245.715" cy="293.695" r="0.855093" fill="#88FFEB" fill-opacity="0.1"/>
<circle cx="261.108" cy="301.391" r="1.71019" fill="#88FFEB" fill-opacity="0.1"/>
<circle cx="266.666" cy="287.282" r="0.427546" fill="#88FFEB" fill-opacity="0.1"/>
<circle cx="268.376" cy="271.89" r="0.427546" fill="#88FFEB" fill-opacity="0.1"/>
<circle cx="282.912" cy="258.209" r="0.427546" fill="#88FFEB" fill-opacity="0.1"/>
<circle cx="304.289" cy="223.15" r="1.28264" fill="#88FFEB" fill-opacity="0.1"/>
<circle cx="309.42" cy="198.352" r="1.28264" fill="#88FFEB" fill-opacity="0.1"/>
<circle cx="316.261" cy="201.772" r="0.427546" fill="#88FFEB" fill-opacity="0.1"/>
<circle cx="315.406" cy="206.048" r="0.427546" fill="#88FFEB" fill-opacity="0.1"/>
<circle cx="302.58" cy="212.034" r="0.427546" fill="#88FFEB" fill-opacity="0.1"/>
<circle cx="312.413" cy="189.374" r="0.855093" fill="#88FFEB" fill-opacity="0.1"/>
<circle cx="307.71" cy="175.264" r="0.427546" fill="#88FFEB" fill-opacity="0.1"/>
<circle cx="311.13" cy="157.308" r="1.28264" fill="#88FFEB" fill-opacity="0.1"/>
<circle cx="309.848" cy="148.33" r="0.855093" fill="#88FFEB" fill-opacity="0.1"/>
<circle cx="302.58" cy="150.467" r="0.427546" fill="#88FFEB" fill-opacity="0.1"/>
<circle cx="304.29" cy="154.742" r="0.427546" fill="#88FFEB" fill-opacity="0.1"/>
<circle cx="303.862" cy="143.199" r="0.855093" fill="#88FFEB" fill-opacity="0.1"/>
<circle cx="320.537" cy="141.061" r="0.427546" fill="#88FFEB" fill-opacity="0.1"/>
<circle cx="306" cy="135.93" r="0.427546" fill="#88FFEB" fill-opacity="0.1"/>
<circle cx="302.58" cy="129.089" r="1.28264" fill="#88FFEB" fill-opacity="0.1"/>
<circle cx="302.58" cy="118.829" r="0.427546" fill="#88FFEB" fill-opacity="0.1"/>
<circle cx="304.29" cy="117.973" r="0.427546" fill="#88FFEB" fill-opacity="0.1"/>
<circle cx="300.014" cy="113.698" r="0.427546" fill="#88FFEB" fill-opacity="0.1"/>
<circle cx="303.862" cy="108.14" r="0.855093" fill="#88FFEB" fill-opacity="0.1"/>
<circle cx="209.375" cy="35.0291" r="0.427546" fill="#88FFEB" fill-opacity="0.1"/>
<circle cx="211.939" cy="31.6092" r="0.427546" fill="#88FFEB" fill-opacity="0.1"/>
<circle cx="217.926" cy="33.3191" r="0.427546" fill="#88FFEB" fill-opacity="0.1"/>
<circle cx="221.346" cy="35.0291" r="0.427546" fill="#88FFEB" fill-opacity="0.1"/>
<circle cx="224.338" cy="37.1676" r="0.855093" fill="#88FFEB" fill-opacity="0.1"/>
<circle cx="226.904" cy="39.732" r="0.855093" fill="#88FFEB" fill-opacity="0.1"/>
<circle cx="232.462" cy="41.0154" r="0.427546" fill="#88FFEB" fill-opacity="0.1"/>
<circle cx="229.469" cy="44.8629" r="0.855093" fill="#88FFEB" fill-opacity="0.1"/>
<circle cx="234.172" cy="48.7108" r="0.427546" fill="#88FFEB" fill-opacity="0.1"/>
<circle cx="250.419" cy="47.8563" r="0.427546" fill="#88FFEB" fill-opacity="0.1"/>
<circle cx="257.26" cy="50.4207" r="0.427546" fill="#88FFEB" fill-opacity="0.1"/>
<circle cx="259.825" cy="52.1313" r="1.28264" fill="#88FFEB" fill-opacity="0.1"/>
<circle cx="254.694" cy="54.6961" r="0.427546" fill="#88FFEB" fill-opacity="0.1"/>
<circle cx="256.832" cy="61.11" r="0.855093" fill="#88FFEB" fill-opacity="0.1"/>
<circle cx="266.666" cy="55.5516" r="0.427546" fill="#88FFEB" fill-opacity="0.1"/>
<circle cx="268.803" cy="61.9645" r="0.855093" fill="#88FFEB" fill-opacity="0.1"/>
<circle cx="273.507" cy="54.6961" r="0.427546" fill="#88FFEB" fill-opacity="0.1"/>
<circle cx="274.361" cy="63.2479" r="0.427546" fill="#88FFEB" fill-opacity="0.1"/>
<circle cx="273.934" cy="73.0807" r="0.855093" fill="#88FFEB" fill-opacity="0.1"/>
<circle cx="283.767" cy="76.9285" r="0.427546" fill="#88FFEB" fill-opacity="0.1"/>
</g>
<defs>
<filter id="filter0_d_630_112" x="34.6309" y="9.92773" width="269.535" height="316.993" filterUnits="userSpaceOnUse" color-interpolation-filters="sRGB">
<feFlood flood-opacity="0" result="BackgroundImageFix"/>
<feColorMatrix in="SourceAlpha" type="matrix" values="0 0 0 0 0 0 0 0 0 0 0 0 0 0 0 0 0 0 127 0" result="hardAlpha"/>
<feOffset/>
<feGaussianBlur stdDeviation="4"/>
<feComposite in2="hardAlpha" operator="out"/>
<feColorMatrix type="matrix" values="0 0 0 0 0.45098 0 0 0 0 0 0 0 0 0 1 0 0 0 1 0"/>
<feBlend mode="normal" in2="BackgroundImageFix" result="effect1_dropShadow_630_112"/>
<feBlend mode="normal" in="SourceGraphic" in2="effect1_dropShadow_630_112" result="shape"/>
</filter>
<filter id="filter1_d_630_112" x="33.6309" y="8.92773" width="271.535" height="318.993" filterUnits="userSpaceOnUse" color-interpolation-filters="sRGB">
<feFlood flood-opacity="0" result="BackgroundImageFix"/>
<feColorMatrix in="SourceAlpha" type="matrix" values="0 0 0 0 0 0 0 0 0 0 0 0 0 0 0 0 0 0 127 0" result="hardAlpha"/>
<feOffset/>
<feGaussianBlur stdDeviation="4"/>
<feColorMatrix type="matrix" values="0 0 0 0 0.45098 0 0 0 0 0 0 0 0 0 1 0 0 0 1 0"/>
<feBlend mode="normal" in2="BackgroundImageFix" result="effect1_dropShadow_630_112"/>
<feBlend mode="normal" in="SourceGraphic" in2="effect1_dropShadow_630_112" result="shape"/>
</filter>
<filter id="filter2_d_630_112" x="36.9146" y="26.5293" width="263.543" height="293.623" filterUnits="userSpaceOnUse" color-interpolation-filters="sRGB">
<feFlood flood-opacity="0" result="BackgroundImageFix"/>
<feColorMatrix in="SourceAlpha" type="matrix" values="0 0 0 0 0 0 0 0 0 0 0 0 0 0 0 0 0 0 127 0" result="hardAlpha"/>
<feOffset/>
<feGaussianBlur stdDeviation="4"/>
<feColorMatrix type="matrix" values="0 0 0 0 0.45098 0 0 0 0 0 0 0 0 0 1 0 0 0 1 0"/>
<feBlend mode="normal" in2="BackgroundImageFix" result="effect1_dropShadow_630_112"/>
<feBlend mode="normal" in="SourceGraphic" in2="effect1_dropShadow_630_112" result="shape"/>
</filter>
<filter id="filter3_d_630_112" x="34.7158" y="21.5654" width="269.127" height="293.6" filterUnits="userSpaceOnUse" color-interpolation-filters="sRGB">
<feFlood flood-opacity="0" result="BackgroundImageFix"/>
<feColorMatrix in="SourceAlpha" type="matrix" values="0 0 0 0 0 0 0 0 0 0 0 0 0 0 0 0 0 0 127 0" result="hardAlpha"/>
<feOffset/>
<feGaussianBlur stdDeviation="4"/>
<feColorMatrix type="matrix" values="0 0 0 0 0 0 0 0 0 0.964706 0 0 0 0 1 0 0 0 1 0"/>
<feBlend mode="normal" in2="BackgroundImageFix" result="effect1_dropShadow_630_112"/>
<feBlend mode="normal" in="SourceGraphic" in2="effect1_dropShadow_630_112" result="shape"/>
</filter>
<filter id="filter4_d_630_112" x="33.2041" y="8.5" width="273.673" height="319.848" filterUnits="userSpaceOnUse" color-interpolation-filters="sRGB">
<feFlood flood-opacity="0" result="BackgroundImageFix"/>
<feColorMatrix in="SourceAlpha" type="matrix" values="0 0 0 0 0 0 0 0 0 0 0 0 0 0 0 0 0 0 127 0" result="hardAlpha"/>
<feOffset/>
<feGaussianBlur stdDeviation="4"/>
<feColorMatrix type="matrix" values="0 0 0 0 0 0 0 0 0 0.964706 0 0 0 0 1 0 0 0 1 0"/>
<feBlend mode="normal" in2="BackgroundImageFix" result="effect1_dropShadow_630_112"/>
<feBlend mode="normal" in="SourceGraphic" in2="effect1_dropShadow_630_112" result="shape"/>
</filter>
<filter id="filter5_d_630_112" x="0" y="11.21" width="328.965" height="318.703" filterUnits="userSpaceOnUse" color-interpolation-filters="sRGB">
<feFlood flood-opacity="0" result="BackgroundImageFix"/>
<feColorMatrix in="SourceAlpha" type="matrix" values="0 0 0 0 0 0 0 0 0 0 0 0 0 0 0 0 0 0 127 0" result="hardAlpha"/>
<feOffset/>
<feGaussianBlur stdDeviation="4"/>
<feColorMatrix type="matrix" values="0 0 0 0 0.533333 0 0 0 0 1 0 0 0 0 0.921569 0 0 0 1 0"/>
<feBlend mode="normal" in2="BackgroundImageFix" result="effect1_dropShadow_630_112"/>
<feBlend mode="normal" in="SourceGraphic" in2="effect1_dropShadow_630_112" result="shape"/>
</filter>
<radialGradient id="paint0_radial_630_112" cx="0" cy="0" r="1" gradientUnits="userSpaceOnUse" gradientTransform="translate(169.398 168.424) rotate(90) scale(150.496 126.768)">
<stop stop-color="#1C003A"/>
<stop offset="1" stop-color="#08004E"/>
</radialGradient>
</defs>
</svg>
