<svg width="382" height="382" viewBox="0 0 382 382" fill="none" xmlns="http://www.w3.org/2000/svg">
<g filter="url(#filter0_d_626_161)">
<path d="M50 102.5L197 13.5L343.5 102L345 275.5L197.5 365.5L48.5 276L50 102.5Z" fill="url(#paint0_radial_626_161)"/>
</g>
<g filter="url(#filter1_d_626_161)">
<path d="M97.5 120H296.5M97.5 120L197 13.5M97.5 120L50 102.5M97.5 120L48.5 276M97.5 120L196.5 301M296.5 120L197 13.5M296.5 120L343.5 102M296.5 120L345 275.5M296.5 120L196.5 301M197 13.5L50 102.5M197 13.5L343.5 102M50 102.5L48.5 276M343.5 102L345 275.5M345 275.5L197.5 365.5M345 275.5L196.5 301M197.5 365.5L196.5 301M197.5 365.5L48.5 276M196.5 301L48.5 276" stroke="#7300FF" stroke-width="2" stroke-linecap="round" stroke-linejoin="round"/>
</g>
<g filter="url(#filter2_d_626_161)">
<path d="M193.999 276.498C236.768 230.063 249.836 202.75 274.999 139.498C215.457 122.817 181.941 121.457 121.999 134.498C137.902 193.394 158.453 222.131 197.499 272.998C222.205 236.255 246.355 203.805 270.499 135.999C243.499 125.501 145.999 128 119.499 137.998C143.4 187.356 157.796 214.448 184.999 261.999M291.499 152.5C312.921 194.99 321.999 223 325.499 264.5M221.999 283.5C264.045 282.275 286.069 279.286 319.999 266M298.999 160.5C315.982 197.629 322.414 219.36 327.999 260M232.499 45C267.07 63.4651 286.953 75.451 319.999 101.5M231.499 39.5C270.109 61.9931 290.894 75.6601 323.499 103M271.999 60.5C293.276 73.5176 304.273 81.621 321.999 97.5M297.999 108C307.938 108.028 313.687 107.74 324.999 105.5M324.999 99.5C318.217 105.908 313.87 108.139 305.499 110.5M198.499 33.5C160.944 62.1516 145.848 79.6011 124.499 112M189.999 33.5C162.373 58.7174 148.395 74.5174 125.999 105.5M168.999 51C154.751 57.6824 147.631 63.2142 139.999 83.5M132.999 86C144.999 69 157.287 60.245 174.499 45M71.9993 104C104.065 80.1249 122.876 68.1248 157.499 48.5M73.4993 101.5C103.811 77.1257 122.294 63.8002 159.499 41M112.999 67.5C95.8678 79.7577 86.7195 86.8112 71.9993 100M71.9993 97.5C75.7799 93.6467 78.4393 91.2246 84.9993 86M68.9993 100C76.3573 105.506 80.6125 107.846 88.4993 110M68.9993 105.5C78.0562 108.167 83.5305 108.493 93.9993 107.5M85.9993 113.5C97.0737 112.297 103.629 109.577 114.999 100M132.999 88.5C128.257 96.014 125.214 100 121.999 107.5C120.499 111 123.499 114 127.999 114.5C138.999 115.722 148.115 116.826 160.999 118M57.4993 118C71.676 117.293 78.8129 117.981 90.4993 120.5M63.9993 112C75.7951 119.634 81.3823 124.309 88.9993 133.5C77.6449 121.882 71.31 118.17 59.9993 115.5M64.9993 119C58.2211 165.661 57.7249 188.749 60.9993 226M62.4993 120.5C52.4994 169.5 47.9995 185 55.4993 212M55.4993 143C52 228.5 53.406 247.715 64 226M78 116C91.4613 123.971 88.4993 131 84 154.5M69.5 264.5C109.078 279.485 132.48 283.566 176 283.5M168 286C127.318 287.18 106.294 282.918 71.5 268M69.5 260C75.8919 219.28 81.4461 191.846 100 154.5C100.998 152.492 103.654 151.623 107 152.5C112.114 153.841 114.288 157.111 118 163.5M66.5 254.5C72.6261 215.936 79.3449 193.751 96.5 153.5M108 151C103.931 147.332 102.221 145.08 98.5 148M93.5 289.5C128.37 314.588 149.609 326.899 191 345.5M85.5 288.5C123.055 314.034 145.26 326.896 187.5 346.5M77 289.5C116.369 318.785 140.504 333.456 187.5 357M169.5 300C179.787 302.542 184.517 304.357 189 309M186 349C190.99 336.639 193.026 328.221 195.5 311M183 307C190 321.5 193 336.5 195.5 357M210.5 307C205.575 322.011 203.659 330.143 202 344M202 326C204.337 333.638 205.514 338.405 207 349M209 344C249.127 325.029 270.657 312.818 307.5 288.5M299 289.5C269.789 313.191 252.535 325.017 220.5 344M308 290.5C295.5 303 229.5 345.5 208.5 354M291.5 280.5C302.906 277.23 308.8 275.009 318 270M229.5 286.5C244.163 287.674 252.374 287.165 267 283.5M246.5 290.5C258.072 288.311 263.658 286.56 272 282.5M305.499 132.5C316.115 122.439 322.309 117.951 334.5 113.5M335.5 119C321.227 118.08 313.986 119.017 301.5 121.5M330 118C340 139.498 343 209 337 231.5M331.5 126C337 166.5 339 206 333 224M195.5 33.5C230.111 59.344 245.882 75.3137 266 107M268.5 107C250.507 79.5847 238.838 64.5682 210 39.5M204.5 34.5C230.601 54.4356 242.42 66.5082 259 90M251.5 76.5C247.162 66.0109 243.268 60.5143 229.5 52.5M95.5 280.5C107.5 287.5 135.5 291 147.5 288.5" stroke="#7300FF" stroke-linecap="round"/>
</g>
<g filter="url(#filter3_d_626_161)">
<path d="M52.9994 249.071C69.3483 200.403 76.2894 181.284 80.4592 159.952C86.1733 130.719 91.9575 119.515 72.999 112.548C50.1384 102.751 56.4914 120.449 49.9836 171.013C47.9252 187 49.9839 218 54.4997 251M177.6 30.5395C134.387 51.4429 112.943 64.5564 77.4433 89.3202C61.4119 100.504 62.2515 106.558 73.4752 109.862C91.7288 115.234 99.3477 110.652 113.157 96.1147C131.093 77.2331 153.156 59.1398 177.6 27.6953M168.394 125.821C186.013 119.817 198.552 116.306 220.298 119.817C240.932 123.148 250.456 124.715 265.852 131.826C269.503 133.512 271.039 137.198 271.09 142.412C271.36 169.749 246.667 230.267 202.838 268.822C200.457 270.917 192.52 270.893 190.774 268.822C153.474 224.579 130.662 200.853 122.998 146.047C122.046 138.936 123.95 133.77 130.458 130.878C138.924 127.115 144.317 125.351 154.902 122.661C182.174 115.885 197.464 115.454 224.742 125.821M80.7766 175.911C85.6972 165.956 89.4854 159.687 98.0779 149.997C99.3477 148.565 101.819 148.575 103.316 150.629C135.94 195.402 152.839 225.369 175.219 282.57M70.9355 200.245C64.9039 218.89 62.4237 231.689 63.4754 252.547C63.4754 267.716 69.0623 268.913 77.7608 276.723C84.7636 283.011 139.347 299.951 169.188 287.626C177.768 284.082 177.918 276.249 173.632 267.558M216.964 28.9594C242.678 58.8238 258.233 79.2739 294.741 107.966C297.756 110.336 300.931 111.758 305.058 111.758C325.216 111.758 327.298 106.544 328.867 103.225C330.137 100.539 327.597 98.0564 324.423 95.1667C289.185 63.0901 259.186 51.8712 214.901 28.9594M248.392 287.152C279.027 290.944 299.82 288.416 320.772 274.353C327.756 269.665 332.305 262.916 331.248 253.653C327.177 217.993 303.062 158.632 295.931 150.718C295.031 149.719 291.51 148.777 289.592 151.509M289.592 151.509C258.64 195.595 233.313 234.888 217.917 274.353C216.93 276.881 217.282 281.844 219.822 283.676M289.592 151.509C250.545 204.285 216.171 277.671 219.822 283.676M219.822 283.676C239.98 298.213 266.329 293.63 297.598 279.725M74.0696 285.269C114.223 290.037 137.433 294.614 180.246 306.639C183.416 307.431 188.17 311.388 189.754 314.554C193.32 321.677 195.301 339.881 192.924 347.796C192.131 350.171 188.962 351.754 186.585 350.962C154.89 340.409 113.688 316.137 79.6161 288.435M318.909 284.478C305.651 296.291 298.197 301.889 284.838 310.597M264.236 323.26C243.334 334.734 230.165 341.464 210.356 350.171C208.794 350.857 205.602 351.466 204.017 350.171C195.301 343.047 200.055 321.677 202.838 313.762C204.809 310.597 207.794 309.274 211.148 307.431C226.995 298.724 277.644 289.835 320.772 285.269M186.806 34.8059C151.569 53.0041 132.045 76.2052 123.95 103.225C122.293 108.756 122.998 110.119 127.919 110.81C180.223 118.152 211.409 118.146 265.852 110.81C271.09 109.546 272.519 107.018 271.09 103.225C254.662 59.6138 226.329 46.0248 206.647 34.1738C199.346 29.7775 195.861 30.1298 186.806 34.8059ZM340.303 248.07C345.106 194.254 346.219 164.696 337.926 115.893C337.493 113.344 333.956 110.51 332.38 110.352C324.456 109.561 314.948 114.31 309.401 123.807C307.816 126.182 307.338 128.556 307.816 130.931C317.547 179.273 324.789 204.808 340.303 248.07Z" stroke="#00F6FF" stroke-linecap="round" stroke-linejoin="round"/>
</g>
<g filter="url(#filter4_d_626_161)">
<path d="M50.1425 102.277C69.6372 86.0572 165.799 28.4428 196.965 13M50.1425 102.277C47.2965 169.945 47.8092 208.074 48.714 276.091M50.1425 102.277L96.967 119.816M196.965 13C247.597 38.3274 310.193 77.9013 343.946 101.961M196.965 13C223.034 39.1188 271.091 89.3201 296.963 119.816M196.965 13C177.6 30.5394 114.48 100.854 96.967 119.816M343.946 101.961L296.963 119.816M343.946 101.961C348.227 134.096 347.435 229.074 345.057 276.091M296.963 119.816C218.857 117.562 175.071 117.493 96.967 119.816M296.963 119.816L345.057 276.091M296.963 119.816C279.292 152.3 227.788 248.069 196.965 301.373M48.714 276.091L96.967 119.816M48.714 276.091C75.6545 283.675 181.039 301.373 196.965 301.373M48.714 276.091C88.3323 303.473 164.399 349.379 197.282 366M96.967 119.816C131.879 193.851 155.564 232.248 196.965 301.373M196.965 301.373L197.282 366M196.965 301.373C226.996 299.516 322.079 282.895 345.057 276.091M197.282 366C238.089 345.422 320.772 293.184 345.057 276.091" stroke="#00F6FF" stroke-width="2" stroke-linecap="round" stroke-linejoin="round"/>
</g>
<g filter="url(#filter5_d_626_161)">
<circle cx="133.5" cy="30.5" r="1.5" fill="#88FFEB" fill-opacity="0.1"/>
<circle cx="145.5" cy="23.5" r="0.5" fill="#88FFEB" fill-opacity="0.1"/>
<circle cx="160" cy="24" r="1" fill="#88FFEB" fill-opacity="0.1"/>
<circle cx="146.5" cy="33.5" r="0.5" fill="#88FFEB" fill-opacity="0.1"/>
<circle cx="164.5" cy="15.5" r="0.5" fill="#88FFEB" fill-opacity="0.1"/>
<circle cx="99.5" cy="47.5" r="1.5" fill="#88FFEB" fill-opacity="0.1"/>
<circle cx="96.5" cy="60.5" r="0.5" fill="#88FFEB" fill-opacity="0.1"/>
<circle cx="89.5" cy="60.5" r="0.5" fill="#88FFEB" fill-opacity="0.1"/>
<circle cx="77.5" cy="62.5" r="0.5" fill="#88FFEB" fill-opacity="0.1"/>
<circle cx="76.5" cy="69.5" r="0.5" fill="#88FFEB" fill-opacity="0.1"/>
<circle cx="82" cy="75" r="1" fill="#88FFEB" fill-opacity="0.1"/>
<circle cx="31" cy="147" r="1" fill="#88FFEB" fill-opacity="0.1"/>
<circle cx="40" cy="152" r="1" fill="#88FFEB" fill-opacity="0.1"/>
<circle cx="36" cy="159" r="1" fill="#88FFEB" fill-opacity="0.1"/>
<circle cx="39.5" cy="169.5" r="0.5" fill="#88FFEB" fill-opacity="0.1"/>
<circle cx="35" cy="183" r="1" fill="#88FFEB" fill-opacity="0.1"/>
<circle cx="41" cy="194" r="1" fill="#88FFEB" fill-opacity="0.1"/>
<circle cx="40" cy="199" r="1" fill="#88FFEB" fill-opacity="0.1"/>
<circle cx="39.5" cy="191.5" r="0.5" fill="#88FFEB" fill-opacity="0.1"/>
<circle cx="35.5" cy="199.5" r="0.5" fill="#88FFEB" fill-opacity="0.1"/>
<circle cx="32" cy="208" r="3" fill="#88FFEB" fill-opacity="0.1"/>
<circle cx="42.5" cy="215.5" r="0.5" fill="#88FFEB" fill-opacity="0.1"/>
<circle cx="38.5" cy="228.5" r="0.5" fill="#88FFEB" fill-opacity="0.1"/>
<circle cx="44.5" cy="229.5" r="0.5" fill="#88FFEB" fill-opacity="0.1"/>
<circle cx="42" cy="236" r="1" fill="#88FFEB" fill-opacity="0.1"/>
<circle cx="18.5" cy="196.5" r="0.5" fill="#88FFEB" fill-opacity="0.1"/>
<circle cx="9" cy="195" r="1" fill="#88FFEB" fill-opacity="0.1"/>
<circle cx="70.5" cy="310.5" r="0.5" fill="#88FFEB" fill-opacity="0.1"/>
<circle cx="80.5" cy="301.5" r="0.5" fill="#88FFEB" fill-opacity="0.1"/>
<circle cx="89.5" cy="308.5" r="0.5" fill="#88FFEB" fill-opacity="0.1"/>
<circle cx="92" cy="313" r="1" fill="#88FFEB" fill-opacity="0.1"/>
<circle cx="97" cy="317" r="1" fill="#88FFEB" fill-opacity="0.1"/>
<circle cx="101.5" cy="320.5" r="0.5" fill="#88FFEB" fill-opacity="0.1"/>
<circle cx="108" cy="323" r="1" fill="#88FFEB" fill-opacity="0.1"/>
<circle cx="106.5" cy="329.5" r="0.5" fill="#88FFEB" fill-opacity="0.1"/>
<circle cx="109.5" cy="336.5" r="1.5" fill="#88FFEB" fill-opacity="0.1"/>
<circle cx="117.5" cy="332.5" r="0.5" fill="#88FFEB" fill-opacity="0.1"/>
<circle cx="115.5" cy="331.5" r="0.5" fill="#88FFEB" fill-opacity="0.1"/>
<circle cx="119" cy="341" r="1" fill="#88FFEB" fill-opacity="0.1"/>
<circle cx="146.5" cy="350.5" r="1.5" fill="#88FFEB" fill-opacity="0.1"/>
<circle cx="176.5" cy="366.5" r="0.5" fill="#88FFEB" fill-opacity="0.1"/>
<circle cx="239.5" cy="353.5" r="1.5" fill="#88FFEB" fill-opacity="0.1"/>
<circle cx="258" cy="348" r="2" fill="#88FFEB" fill-opacity="0.1"/>
<circle cx="242" cy="368" r="1" fill="#88FFEB" fill-opacity="0.1"/>
<circle cx="272" cy="356" r="1" fill="#88FFEB" fill-opacity="0.1"/>
<circle cx="261" cy="337" r="1" fill="#88FFEB" fill-opacity="0.1"/>
<circle cx="284" cy="331" r="1" fill="#88FFEB" fill-opacity="0.1"/>
<circle cx="287" cy="334" r="1" fill="#88FFEB" fill-opacity="0.1"/>
<circle cx="286" cy="336" r="1" fill="#88FFEB" fill-opacity="0.1"/>
<circle cx="304" cy="345" r="2" fill="#88FFEB" fill-opacity="0.1"/>
<circle cx="310.5" cy="328.5" r="0.5" fill="#88FFEB" fill-opacity="0.1"/>
<circle cx="312.5" cy="310.5" r="0.5" fill="#88FFEB" fill-opacity="0.1"/>
<circle cx="329.5" cy="294.5" r="0.5" fill="#88FFEB" fill-opacity="0.1"/>
<circle cx="354.5" cy="253.5" r="1.5" fill="#88FFEB" fill-opacity="0.1"/>
<circle cx="360.5" cy="224.5" r="1.5" fill="#88FFEB" fill-opacity="0.1"/>
<circle cx="368.5" cy="228.5" r="0.5" fill="#88FFEB" fill-opacity="0.1"/>
<circle cx="367.5" cy="233.5" r="0.5" fill="#88FFEB" fill-opacity="0.1"/>
<circle cx="352.5" cy="240.5" r="0.5" fill="#88FFEB" fill-opacity="0.1"/>
<circle cx="364" cy="214" r="1" fill="#88FFEB" fill-opacity="0.1"/>
<circle cx="358.5" cy="197.5" r="0.5" fill="#88FFEB" fill-opacity="0.1"/>
<circle cx="362.5" cy="176.5" r="1.5" fill="#88FFEB" fill-opacity="0.1"/>
<circle cx="361" cy="166" r="1" fill="#88FFEB" fill-opacity="0.1"/>
<circle cx="352.5" cy="168.5" r="0.5" fill="#88FFEB" fill-opacity="0.1"/>
<circle cx="354.5" cy="173.5" r="0.5" fill="#88FFEB" fill-opacity="0.1"/>
<circle cx="354" cy="160" r="1" fill="#88FFEB" fill-opacity="0.1"/>
<circle cx="373.5" cy="157.5" r="0.5" fill="#88FFEB" fill-opacity="0.1"/>
<circle cx="356.5" cy="151.5" r="0.5" fill="#88FFEB" fill-opacity="0.1"/>
<circle cx="352.5" cy="143.5" r="1.5" fill="#88FFEB" fill-opacity="0.1"/>
<circle cx="352.5" cy="131.5" r="0.5" fill="#88FFEB" fill-opacity="0.1"/>
<circle cx="354.5" cy="130.5" r="0.5" fill="#88FFEB" fill-opacity="0.1"/>
<circle cx="349.5" cy="125.5" r="0.5" fill="#88FFEB" fill-opacity="0.1"/>
<circle cx="354" cy="119" r="1" fill="#88FFEB" fill-opacity="0.1"/>
<circle cx="243.5" cy="33.5" r="0.5" fill="#88FFEB" fill-opacity="0.1"/>
<circle cx="246.5" cy="29.5" r="0.5" fill="#88FFEB" fill-opacity="0.1"/>
<circle cx="253.5" cy="31.5" r="0.5" fill="#88FFEB" fill-opacity="0.1"/>
<circle cx="257.5" cy="33.5" r="0.5" fill="#88FFEB" fill-opacity="0.1"/>
<circle cx="261" cy="36" r="1" fill="#88FFEB" fill-opacity="0.1"/>
<circle cx="264" cy="39" r="1" fill="#88FFEB" fill-opacity="0.1"/>
<circle cx="270.5" cy="40.5" r="0.5" fill="#88FFEB" fill-opacity="0.1"/>
<circle cx="267" cy="45" r="1" fill="#88FFEB" fill-opacity="0.1"/>
<circle cx="272.5" cy="49.5" r="0.5" fill="#88FFEB" fill-opacity="0.1"/>
<circle cx="291.5" cy="48.5" r="0.5" fill="#88FFEB" fill-opacity="0.1"/>
<circle cx="299.5" cy="51.5" r="0.5" fill="#88FFEB" fill-opacity="0.1"/>
<circle cx="302.5" cy="53.5" r="1.5" fill="#88FFEB" fill-opacity="0.1"/>
<circle cx="296.5" cy="56.5" r="0.5" fill="#88FFEB" fill-opacity="0.1"/>
<circle cx="299" cy="64" r="1" fill="#88FFEB" fill-opacity="0.1"/>
<circle cx="310.5" cy="57.5" r="0.5" fill="#88FFEB" fill-opacity="0.1"/>
<circle cx="313" cy="65" r="1" fill="#88FFEB" fill-opacity="0.1"/>
<circle cx="318.5" cy="56.5" r="0.5" fill="#88FFEB" fill-opacity="0.1"/>
<circle cx="319.5" cy="66.5" r="0.5" fill="#88FFEB" fill-opacity="0.1"/>
<circle cx="319" cy="78" r="1" fill="#88FFEB" fill-opacity="0.1"/>
<circle cx="330.5" cy="82.5" r="0.5" fill="#88FFEB" fill-opacity="0.1"/>
</g>
<defs>
<filter id="filter0_d_626_161" x="40.5" y="5.5" width="312.5" height="368" filterUnits="userSpaceOnUse" color-interpolation-filters="sRGB">
<feFlood flood-opacity="0" result="BackgroundImageFix"/>
<feColorMatrix in="SourceAlpha" type="matrix" values="0 0 0 0 0 0 0 0 0 0 0 0 0 0 0 0 0 0 127 0" result="hardAlpha"/>
<feOffset/>
<feGaussianBlur stdDeviation="4"/>
<feComposite in2="hardAlpha" operator="out"/>
<feColorMatrix type="matrix" values="0 0 0 0 0.45098 0 0 0 0 0 0 0 0 0 1 0 0 0 1 0"/>
<feBlend mode="normal" in2="BackgroundImageFix" result="effect1_dropShadow_626_161"/>
<feBlend mode="normal" in="SourceGraphic" in2="effect1_dropShadow_626_161" result="shape"/>
</filter>
<filter id="filter1_d_626_161" x="39.5" y="4.5" width="314.5" height="370" filterUnits="userSpaceOnUse" color-interpolation-filters="sRGB">
<feFlood flood-opacity="0" result="BackgroundImageFix"/>
<feColorMatrix in="SourceAlpha" type="matrix" values="0 0 0 0 0 0 0 0 0 0 0 0 0 0 0 0 0 0 127 0" result="hardAlpha"/>
<feOffset/>
<feGaussianBlur stdDeviation="4"/>
<feColorMatrix type="matrix" values="0 0 0 0 0.45098 0 0 0 0 0 0 0 0 0 1 0 0 0 1 0"/>
<feBlend mode="normal" in2="BackgroundImageFix" result="effect1_dropShadow_626_161"/>
<feBlend mode="normal" in="SourceGraphic" in2="effect1_dropShadow_626_161" result="shape"/>
</filter>
<filter id="filter2_d_626_161" x="43.2554" y="25" width="305.323" height="340.5" filterUnits="userSpaceOnUse" color-interpolation-filters="sRGB">
<feFlood flood-opacity="0" result="BackgroundImageFix"/>
<feColorMatrix in="SourceAlpha" type="matrix" values="0 0 0 0 0 0 0 0 0 0 0 0 0 0 0 0 0 0 127 0" result="hardAlpha"/>
<feOffset/>
<feGaussianBlur stdDeviation="4"/>
<feColorMatrix type="matrix" values="0 0 0 0 0.45098 0 0 0 0 0 0 0 0 0 1 0 0 0 1 0"/>
<feBlend mode="normal" in2="BackgroundImageFix" result="effect1_dropShadow_626_161"/>
<feBlend mode="normal" in="SourceGraphic" in2="effect1_dropShadow_626_161" result="shape"/>
</filter>
<filter id="filter3_d_626_161" x="40.6836" y="19.1953" width="311.854" height="340.473" filterUnits="userSpaceOnUse" color-interpolation-filters="sRGB">
<feFlood flood-opacity="0" result="BackgroundImageFix"/>
<feColorMatrix in="SourceAlpha" type="matrix" values="0 0 0 0 0 0 0 0 0 0 0 0 0 0 0 0 0 0 127 0" result="hardAlpha"/>
<feOffset/>
<feGaussianBlur stdDeviation="4"/>
<feColorMatrix type="matrix" values="0 0 0 0 0 0 0 0 0 0.964706 0 0 0 0 1 0 0 0 1 0"/>
<feBlend mode="normal" in2="BackgroundImageFix" result="effect1_dropShadow_626_161"/>
<feBlend mode="normal" in="SourceGraphic" in2="effect1_dropShadow_626_161" result="shape"/>
</filter>
<filter id="filter4_d_626_161" x="39" y="4" width="317" height="371" filterUnits="userSpaceOnUse" color-interpolation-filters="sRGB">
<feFlood flood-opacity="0" result="BackgroundImageFix"/>
<feColorMatrix in="SourceAlpha" type="matrix" values="0 0 0 0 0 0 0 0 0 0 0 0 0 0 0 0 0 0 127 0" result="hardAlpha"/>
<feOffset/>
<feGaussianBlur stdDeviation="4"/>
<feColorMatrix type="matrix" values="0 0 0 0 0 0 0 0 0 0.964706 0 0 0 0 1 0 0 0 1 0"/>
<feBlend mode="normal" in2="BackgroundImageFix" result="effect1_dropShadow_626_161"/>
<feBlend mode="normal" in="SourceGraphic" in2="effect1_dropShadow_626_161" result="shape"/>
</filter>
<filter id="filter5_d_626_161" x="0" y="7" width="382" height="370" filterUnits="userSpaceOnUse" color-interpolation-filters="sRGB">
<feFlood flood-opacity="0" result="BackgroundImageFix"/>
<feColorMatrix in="SourceAlpha" type="matrix" values="0 0 0 0 0 0 0 0 0 0 0 0 0 0 0 0 0 0 127 0" result="hardAlpha"/>
<feOffset/>
<feGaussianBlur stdDeviation="4"/>
<feColorMatrix type="matrix" values="0 0 0 0 0.533333 0 0 0 0 1 0 0 0 0 0.921569 0 0 0 1 0"/>
<feBlend mode="normal" in2="BackgroundImageFix" result="effect1_dropShadow_626_161"/>
<feBlend mode="normal" in="SourceGraphic" in2="effect1_dropShadow_626_161" result="shape"/>
</filter>
<radialGradient id="paint0_radial_626_161" cx="0" cy="0" r="1" gradientUnits="userSpaceOnUse" gradientTransform="translate(196.75 189.5) rotate(90) scale(176 148.25)">
<stop stop-color="#100021"/>
<stop offset="1" stop-color="#000824"/>
</radialGradient>
</defs>
</svg>
